HIERARCHY
ROOT Hips
{
    OFFSET 0.000000 0.000000 0.000000
    CHANNELS 6 Xposition Yposition Zposition Zrotation Xrotation Yrotation
    JOINT Spine
    {
        OFFSET -0.000000 0.072775 0.000000
        CHANNELS 3 Zrotation Xrotation Yrotation
        JOINT Spine1
        {
            OFFSET -0.000000 0.195886 0.000000
            CHANNELS 3 Zrotation Xrotation Yrotation
            JOINT Neck
            {
                OFFSET -0.000000 0.195082 0.017735
                CHANNELS 3 Zrotation Xrotation Yrotation
                JOINT Head
                {
                    OFFSET -0.000000 0.124250 -0.017750
                    CHANNELS 3 Zrotation Xrotation Yrotation
                    End Site
                    {
                        OFFSET -0.000000 0.177500 0.000000
                    }
                }
            }
            JOINT LeftShoulder
            {
                OFFSET 0.035772 0.183979 -0.000787
                CHANNELS 3 Zrotation Xrotation Yrotation
                JOINT LeftArm
                {
                    OFFSET 0.089258 0.000000 0.000000
                    CHANNELS 3 Zrotation Xrotation Yrotation
                    JOINT LeftForeArm
                    {
                        OFFSET 0.285064 0.000000 0.000000
                        CHANNELS 3 Zrotation Xrotation Yrotation
                        JOINT LeftHand
                        {
                            OFFSET 0.227012 0.000000 0.000000
                            CHANNELS 3 Zrotation Xrotation Yrotation
                            JOINT LeftHandThumb1
                            {
                                OFFSET 0.022188 -0.013313 0.044375
                                CHANNELS 3 Zrotation Xrotation Yrotation
                                JOINT LeftHandThumb2
                                {
                                    OFFSET 0.026625 0.000000 0.000000
                                    CHANNELS 3 Zrotation Xrotation Yrotation
                                    JOINT LeftHandThumb3
                                    {
                                        OFFSET 0.026625 0.000000 0.000000
                                        CHANNELS 3 Zrotation Xrotation Yrotation
                                        End Site
                                        {
                                            OFFSET 0.023630 0.000000 0.000000
                                        }
                                    }
                                }
                            }
                            JOINT LeftHandIndex1
                            {
                                OFFSET 0.079875 0.000000 0.031063
                                CHANNELS 3 Zrotation Xrotation Yrotation
                                JOINT LeftHandIndex2
                                {
                                    OFFSET 0.044375 0.000000 0.000000
                                    CHANNELS 3 Zrotation Xrotation Yrotation
                                    JOINT LeftHandIndex3
                                    {
                                        OFFSET 0.022188 0.000000 0.000000
                                        CHANNELS 3 Zrotation Xrotation Yrotation
                                        End Site
                                        {
                                            OFFSET 0.019691 0.000000 0.000000
                                        }
                                    }
                                }
                            }
                            JOINT LeftHandMiddle1
                            {
                                OFFSET 0.079875 0.000000 0.010295
                                CHANNELS 3 Zrotation Xrotation Yrotation
                                JOINT LeftHandMiddle2
                                {
                                    OFFSET 0.048813 0.000000 0.000000
                                    CHANNELS 3 Zrotation Xrotation Yrotation
                                    JOINT LeftHandMiddle3
                                    {
                                        OFFSET 0.026625 0.000000 0.000000
                                        CHANNELS 3 Zrotation Xrotation Yrotation
                                        End Site
                                        {
                                            OFFSET 0.023630 0.000000 0.000000
                                        }
                                    }
                                }
                            }
                            JOINT LeftHandRing1
                            {
                                OFFSET 0.075438 0.000000 -0.010295
                                CHANNELS 3 Zrotation Xrotation Yrotation
                                JOINT LeftHandRing2
                                {
                                    OFFSET 0.044375 0.000000 0.000000
                                    CHANNELS 3 Zrotation Xrotation Yrotation
                                    JOINT LeftHandRing3
                                    {
                                        OFFSET 0.022188 0.000000 0.000000
                                        CHANNELS 3 Zrotation Xrotation Yrotation
                                        End Site
                                        {
                                            OFFSET 0.019691 0.000000 0.000000
                                        }
                                    }
                                }
                            }
                            JOINT LeftHandPinky1
                            {
                                OFFSET 0.071000 0.000000 -0.031063
                                CHANNELS 3 Zrotation Xrotation Yrotation
                                JOINT LeftHandPinky2
                                {
                                    OFFSET 0.035500 0.000000 0.000000
                                    CHANNELS 3 Zrotation Xrotation Yrotation
                                    JOINT LeftHandPinky3
                                    {
                                        OFFSET 0.017750 0.000000 0.000000
                                        CHANNELS 3 Zrotation Xrotation Yrotation
                                        End Site
                                        {
                                            OFFSET 0.015753 0.000000 0.000000
                                        }
                                    }
                                }
                            }
                        }
                    }
                }
            }
            JOINT RightShoulder
            {
                OFFSET -0.035163 0.183979 -0.000787
                CHANNELS 3 Zrotation Xrotation Yrotation
                JOINT RightArm
                {
                    OFFSET -0.089258 0.000000 0.000000
                    CHANNELS 3 Zrotation Xrotation Yrotation
                    JOINT RightForeArm
                    {
                        OFFSET -0.285064 0.000000 0.000000
                        CHANNELS 3 Zrotation Xrotation Yrotation
                        JOINT RightHand
                        {
                            OFFSET -0.227012 0.000000 0.000000
                            CHANNELS 3 Zrotation Xrotation Yrotation
                            JOINT RightHandThumb1
                            {
                                OFFSET -0.022188 -0.013313 0.044375
                                CHANNELS 3 Zrotation Xrotation Yrotation
                                JOINT RightHandThumb2
                                {
                                    OFFSET -0.026625 0.000000 0.000000
                                    CHANNELS 3 Zrotation Xrotation Yrotation
                                    JOINT RightHandThumb3
                                    {
                                        OFFSET -0.026625 0.000000 0.000000
                                        CHANNELS 3 Zrotation Xrotation Yrotation
                                        End Site
                                        {
                                            OFFSET -0.023630 0.000000 0.000000
                                        }
                                    }
                                }
                            }
                            JOINT RightHandIndex1
                            {
                                OFFSET -0.079875 0.000000 0.031063
                                CHANNELS 3 Zrotation Xrotation Yrotation
                                JOINT RightHandIndex2
                                {
                                    OFFSET -0.044375 0.000000 0.000000
                                    CHANNELS 3 Zrotation Xrotation Yrotation
                                    JOINT RightHandIndex3
                                    {
                                        OFFSET -0.022188 0.000000 0.000000
                                        CHANNELS 3 Zrotation Xrotation Yrotation
                                        End Site
                                        {
                                            OFFSET -0.019691 0.000000 0.000000
                                        }
                                    }
                                }
                            }
                            JOINT RightHandMiddle1
                            {
                                OFFSET -0.079875 0.000000 0.010295
                                CHANNELS 3 Zrotation Xrotation Yrotation
                                JOINT RightHandMiddle2
                                {
                                    OFFSET -0.048813 0.000000 0.000000
                                    CHANNELS 3 Zrotation Xrotation Yrotation
                                    JOINT RightHandMiddle3
                                    {
                                        OFFSET -0.026625 0.000000 0.000000
                                        CHANNELS 3 Zrotation Xrotation Yrotation
                                        End Site
                                        {
                                            OFFSET -0.023630 0.000000 0.000000
                                        }
                                    }
                                }
                            }
                            JOINT RightHandRing1
                            {
                                OFFSET -0.075438 0.000000 -0.010295
                                CHANNELS 3 Zrotation Xrotation Yrotation
                                JOINT RightHandRing2
                                {
                                    OFFSET -0.044375 0.000000 0.000000
                                    CHANNELS 3 Zrotation Xrotation Yrotation
                                    JOINT RightHandRing3
                                    {
                                        OFFSET -0.022188 0.000000 0.000000
                                        CHANNELS 3 Zrotation Xrotation Yrotation
                                        End Site
                                        {
                                            OFFSET -0.019691 0.000000 0.000000
                                        }
                                    }
                                }
                            }
                            JOINT RightHandPinky1
                            {
                                OFFSET -0.071000 0.000000 -0.031063
                                CHANNELS 3 Zrotation Xrotation Yrotation
                                JOINT RightHandPinky2
                                {
                                    OFFSET -0.035500 0.000000 0.000000
                                    CHANNELS 3 Zrotation Xrotation Yrotation
                                    JOINT RightHandPinky3
                                    {
                                        OFFSET -0.017750 0.000000 0.000000
                                        CHANNELS 3 Zrotation Xrotation Yrotation
                                        End Site
                                        {
                                            OFFSET -0.015753 0.000000 0.000000
                                        }
                                    }
                                }
                            }
                        }
                    }
                }
            }
        }
    }
    JOINT LeftUpLeg
    {
        OFFSET 0.088750 0.000000 0.000000
        CHANNELS 3 Zrotation Xrotation Yrotation
        JOINT LeftLeg
        {
            OFFSET -0.000000 -0.379026 0.000000
            CHANNELS 3 Zrotation Xrotation Yrotation
            JOINT LeftFoot
            {
                OFFSET -0.000000 -0.385721 0.000000
                CHANNELS 3 Zrotation Xrotation Yrotation
                JOINT LeftToeBase
                {
                    OFFSET -0.000000 -0.057688 0.133125
                    CHANNELS 3 Zrotation Xrotation Yrotation
                    End Site
                    {
                        OFFSET -0.000000 0.000000 0.035500
                    }
                }
            }
        }
    }
    JOINT RightUpLeg
    {
        OFFSET -0.088750 0.000000 0.000000
        CHANNELS 3 Zrotation Xrotation Yrotation
        JOINT RightLeg
        {
            OFFSET -0.000000 -0.379026 0.000000
            CHANNELS 3 Zrotation Xrotation Yrotation
            JOINT RightFoot
            {
                OFFSET -0.000000 -0.385721 0.000000
                CHANNELS 3 Zrotation Xrotation Yrotation
                JOINT RightToeBase
                {
                    OFFSET -0.000000 -0.057688 0.133125
                    CHANNELS 3 Zrotation Xrotation Yrotation
                    End Site
                    {
                        OFFSET -0.000000 0.000000 0.035500
                    }
                }
            }
        }
    }
}
MOTION
Frames:    5
Frame Time:    0.040000
2.556608    0.837899    1.188877    -0.210019    -1.186703    -3.286139    1.328997    -6.469150    0.859259    -3.313610    5.899376    0.432239    5.606879    6.824613    3.058875    -7.208969    -3.115963    1.471334    17.848219    0.259827    -5.811606    -21.153141    -4.706883    0.032498    1.566562    -1.793562    -0.292771    -4.865834    -10.706825    -7.964944    0.209317    6.149363    9.551419    -0.000000    0.000000    5.835876    -0.000000    0.000000    11.671752    15.315809    0.000000    -0.000000    0.000000    0.000000    0.000000    0.000000    0.000000    0.000000    9.170514    0.000000    -0.000000    -2.182158    0.000000    0.000000    -1.091079    0.000000    0.000000    3.025217    0.000000    -0.000000    -4.364316    0.000000    0.000000    -2.182158    0.000000    0.000000    -3.306300    0.000000    0.000000    -6.612600    0.000000    0.000000    -3.306300    0.000000    0.000000    -11.628121    1.501653    -1.968704    9.953720    -0.188446    2.704096    -0.709910    4.014909    -1.495100    10.185588    -20.055662    -4.498730    0.000000    0.000000    0.000000    0.000000    0.000000    0.000000    0.000000    0.000000    0.000000    0.000000    0.000000    0.000000    0.000000    0.000000    0.000000    0.000000    0.000000    0.000000    8.543505    0.000000    -0.000000    17.087015    0.000000    -0.000000    8.543505    0.000000    -0.000000    17.087013    0.000000    -0.000000    34.174026    0.000000    -0.000000    17.087013    0.000000    -0.000000    25.889414    0.000000    -0.000000    51.778828    0.000000    -0.000000    25.889414    0.000000    -0.000000    7.660817    5.076910    -8.706055    -2.263799    6.053234    -4.426270    -3.605412    -9.856642    11.780232    0.639964    -4.174946    -1.224258    -10.586024    9.500341    -3.147048    6.541758    2.628675    -5.647027    6.235899    -7.057910    1.443515    -0.259330    -2.208282    1.563884    
2.556525    0.837924    1.188885    -0.238193    -1.159960    -3.278196    1.357944    -6.481142    0.848209    -3.354923    5.882033    0.429734    5.598915    6.833198    3.065542    -7.189537    -2.985557    1.490685    17.853157    0.193351    -5.859247    -21.128109    -4.707908    0.118118    1.512892    -1.736123    -0.298581    -4.814300    -10.847991    -7.983482    0.164685    6.190409    9.531612    -0.000000    0.000000    5.825586    -0.000000    0.000000    11.651173    15.314129    0.000000    -0.000000    0.000000    0.000000    0.000000    0.000000    0.000000    0.000000    9.202642    0.000000    -0.000000    -2.115645    0.000000    0.000000    -1.057823    0.000000    0.000000    3.091157    0.000000    -0.000000    -4.231291    0.000000    0.000000    -2.115646    0.000000    0.000000    -3.205523    0.000000    0.000000    -6.411047    0.000000    0.000000    -3.205523    0.000000    0.000000    -11.601153    1.509486    -1.960701    9.964828    -0.192979    2.705237    -0.733552    3.975926    -1.476914    10.094637    -19.940943    -4.536354    0.000000    0.000000    0.000000    0.000000    0.000000    0.000000    0.000000    0.000000    0.000000    0.000000    0.000000    0.000000    0.000000    0.000000    0.000000    0.000000    0.000000    0.000000    8.576557    0.000000    -0.000000    17.153112    0.000000    -0.000000    8.576557    0.000000    -0.000000    17.153114    0.000000    -0.000000    34.306225    0.000000    -0.000000    17.153114    0.000000    -0.000000    25.989565    0.000000    -0.000000    51.979130    0.000000    -0.000000    25.989565    0.000000    -0.000000    7.704040    5.045385    -8.638982    -2.270617    6.064764    -4.482042    -3.604310    -9.837587    11.764347    0.629813    -4.177100    -1.213546    -10.540430    9.481882    -3.139823    6.532201    2.612535    -5.952738    6.249688    -6.999780    1.721062    -0.247854    -2.233155    1.558411    
2.556463    0.837919    1.189022    -0.247261    -1.151897    -3.279712    1.356888    -6.494271    0.853422    -3.362987    5.884301    0.431965    5.572981    6.817921    3.065835    -7.175926    -2.816405    1.505162    17.827854    0.206305    -5.859853    -21.081774    -4.737835    0.101084    1.485650    -1.665530    -0.281593    -4.837037    -10.796381    -8.027049    0.219611    6.216050    9.682228    -0.000000    0.000000    5.917789    -0.000000    0.000000    11.835579    15.472709    0.000000    -0.000000    0.000000    0.000000    0.000000    0.000000    0.000000    0.000000    9.315098    0.000000    -0.000000    -2.103235    0.000000    0.000000    -1.051617    0.000000    0.000000    3.157486    0.000000    -0.000000    -4.206469    0.000000    0.000000    -2.103235    0.000000    0.000000    -3.186719    0.000000    0.000000    -6.373437    0.000000    0.000000    -3.186719    0.000000    0.000000    -11.624733    1.510214    -1.963810    9.951485    -0.235434    2.722905    -0.667361    4.171743    -1.483347    9.935247    -19.837675    -4.688719    0.000000    0.000000    0.000000    0.000000    0.000000    0.000000    0.000000    0.000000    0.000000    0.000000    0.000000    0.000000    0.000000    0.000000    0.000000    0.000000    0.000000    0.000000    8.997264    0.000000    -0.000000    17.994522    0.000000    -0.000000    8.997264    0.000000    -0.000000    17.994528    0.000000    -0.000000    35.989056    0.000000    -0.000000    17.994528    0.000000    -0.000000    27.264433    0.000000    -0.000000    54.528866    0.000000    -0.000000    27.264433    0.000000    -0.000000    7.710673    5.050215    -8.641232    -2.257536    6.064063    -4.495943    -3.617703    -9.861351    11.772468    0.630382    -4.167724    -1.212914    -10.527062    9.490921    -3.167919    6.533820    2.600593    -5.891525    6.373328    -7.088770    1.645233    -0.343154    -2.076405    1.630484    
2.556406    0.837925    1.189134    -0.256942    -1.121468    -3.299883    1.367127    -6.532356    0.863389    -3.397594    5.891257    0.436834    5.537933    6.776189    3.052032    -7.084311    -2.616300    1.519170    17.845249    0.206541    -5.855710    -21.090282    -4.642947    0.112969    1.553094    -1.774737    -0.287536    -4.871213    -10.771577    -8.036383    0.270929    6.163999    9.696725    -0.000000    0.000000    5.924554    -0.000000    0.000000    11.849106    15.532644    0.000000    -0.000000    0.000000    0.000000    0.000000    0.000000    0.000000    0.000000    9.358138    0.000000    -0.000000    -2.097469    0.000000    0.000000    -1.048735    0.000000    0.000000    3.183630    0.000000    -0.000000    -4.194939    0.000000    0.000000    -2.097469    0.000000    0.000000    -3.177984    0.000000    0.000000    -6.355967    0.000000    0.000000    -3.177984    0.000000    0.000000    -11.661914    1.484235    -1.968457    9.982285    -0.183043    2.724822    -0.709559    4.058088    -1.518567    10.076133    -19.976051    -4.604058    0.000000    0.000000    0.000000    0.000000    0.000000    0.000000    0.000000    0.000000    0.000000    0.000000    0.000000    0.000000    0.000000    0.000000    0.000000    0.000000    0.000000    0.000000    8.474636    0.000000    -0.000000    16.949274    0.000000    -0.000000    8.474636    0.000000    -0.000000    16.949268    0.000000    -0.000000    33.898544    0.000000    -0.000000    16.949268    0.000000    -0.000000    25.680714    0.000000    -0.000000    51.361423    0.000000    -0.000000    25.680714    0.000000    -0.000000    7.724928    5.046318    -8.629269    -2.257720    6.038449    -4.459212    -3.614621    -9.855010    11.757014    0.641609    -4.158502    -1.223850    -10.517758    9.467923    -3.136141    6.528040    2.601841    -5.787301    6.354896    -7.030671    1.588079    -0.289522    -2.121215    1.566727    
2.556304    0.837943    1.189276    -0.267942    -1.102784    -3.318350    1.382314    -6.573658    0.868851    -3.460107    5.916923    0.442292    5.548809    6.781456    3.015556    -7.014187    -2.515636    1.498114    17.873684    0.202432    -5.857818    -21.036940    -4.679229    0.127976    1.542040    -1.677114    -0.268432    -4.783313    -10.711913    -8.020943    0.227686    6.229248    9.720016    -0.000000    0.000000    5.941221    -0.000000    0.000000    11.882441    15.544122    0.000000    -0.000000    0.000000    0.000000    0.000000    0.000000    0.000000    0.000000    9.390948    0.000000    -0.000000    -2.047225    0.000000    0.000000    -1.023613    0.000000    0.000000    3.237776    0.000000    -0.000000    -4.094450    0.000000    0.000000    -2.047225    0.000000    0.000000    -3.101856    0.000000    0.000000    -6.203712    0.000000    0.000000    -3.101856    0.000000    0.000000    -11.661833    1.476561    -1.965957    9.963210    -0.230831    2.725202    -0.667879    4.155693    -1.529402    9.907584    -20.034271    -4.548234    0.000000    0.000000    0.000000    0.000000    0.000000    0.000000    0.000000    0.000000    0.000000    0.000000    0.000000    0.000000    0.000000    0.000000    0.000000    0.000000    0.000000    0.000000    9.218657    0.000000    -0.000000    18.437317    0.000000    -0.000000    9.218657    0.000000    -0.000000    18.437315    0.000000    -0.000000    36.874630    0.000000    -0.000000    18.437315    0.000000    -0.000000    27.935322    0.000000    -0.000000    55.870644    0.000000    -0.000000    27.935322    0.000000    -0.000000    7.742920    5.059990    -8.633751    -2.256104    6.011199    -4.436907    -3.641496    -9.832191    11.738565    0.606762    -4.149009    -1.184827    -10.485075    9.560941    -2.434546    6.555585    2.294378    -6.811172    6.254486    -6.882221    1.847681    -0.302666    -2.252717    1.658671    
